HIERARCHY
ROOT Hips
{
	OFFSET 0.00000 0.00000 0.00000
	CHANNELS 6 Xposition Yposition Zposition Zrotation Yrotation Xrotation 
	JOINT LHipJoint
	{
		OFFSET 0 0 0
		CHANNELS 3 Zrotation Yrotation Xrotation
		JOINT LeftHip
		{
			OFFSET 1.62964 -1.40469 0.78906
			CHANNELS 3 Zrotation Yrotation Xrotation
			JOINT LeftKnee
			{
				OFFSET 2.29640 -6.30932 0.00000
				CHANNELS 3 Zrotation Yrotation Xrotation
				JOINT LeftAnkle
				{
					OFFSET 2.29451 -6.30412 0.00000
					CHANNELS 3 Zrotation Yrotation Xrotation
					JOINT LeftToe
					{
						OFFSET 0.03611 -0.09921 1.56387
						CHANNELS 3 Zrotation Yrotation Xrotation
						End Site
						{
							OFFSET 0.00000 -0.00000 0.80291
						}
					}
				}
			}
		}
	}
	JOINT RHipJoint
	{
		OFFSET 0 0 0
		CHANNELS 3 Zrotation Yrotation Xrotation
		JOINT RightHip
		{
			OFFSET -1.73712 -1.40469 0.78906
			CHANNELS 3 Zrotation Yrotation Xrotation
			JOINT RightKnee
			{
				OFFSET -2.28137 -6.26801 0.00000
				CHANNELS 3 Zrotation Yrotation Xrotation
				JOINT RightAnkle
				{
					OFFSET -2.28681 -6.28298 0.00000
					CHANNELS 3 Zrotation Yrotation Xrotation
					JOINT RightToe
					{
						OFFSET -0.15927 -0.43759 1.61103
						CHANNELS 3 Zrotation Yrotation Xrotation
						End Site
						{
							OFFSET -0.00000 -0.00000 0.84630
						}
					}
				}
			}
		}
	}
	JOINT lowerback
	{
		OFFSET 0 0 0
		CHANNELS 3 Zrotation Yrotation Xrotation
		JOINT Chest
		{
			OFFSET -0.04227 2.04338 -0.00225
			CHANNELS 3 Zrotation Yrotation Xrotation
			JOINT Chest2
			{
				OFFSET -0.02148 2.04482 -0.04273
				CHANNELS 3 Zrotation Yrotation Xrotation
				JOINT lowerneck
				{
					OFFSET 0 0 0
					CHANNELS 3 Zrotation Yrotation Xrotation
					JOINT Neck
					{
						OFFSET 0.09180 1.44629 0.19359
						CHANNELS 3 Zrotation Yrotation Xrotation
						JOINT Head
						{
							OFFSET 0.00887 1.40645 0.14750
							CHANNELS 3 Zrotation Yrotation Xrotation
							End Site
							{
								OFFSET -0.00669 1.50671 0.03707
							}
						}
					}
				}
				JOINT LeftCollar
				{
					OFFSET 0 0 0
					CHANNELS 3 Zrotation Yrotation Xrotation
					JOINT LeftShoulder
					{
						OFFSET 2.17674 1.86763 -0.06520
CHANNELS 3 Zrotation Xrotation Yrotation
						JOINT LeftElbow
						{
OFFSET 0 -4.657760 0.000000
CHANNELS 3 Zrotation Xrotation Yrotation
							JOINT LeftWrist
							{
OFFSET 0 -3.555390 0.000000
CHANNELS 3 Zrotation Xrotation Yrotation
								JOINT lhand
								{
									OFFSET 0 0 0
CHANNELS 3 Zrotation Xrotation Yrotation
									JOINT LFingers
									{
OFFSET 0 -0.707260 0.000000
CHANNELS 3 Zrotation Xrotation Yrotation
										End Site
										{
OFFSET 0 -0.570220 0.000000
										}
									}
								}
								JOINT LThumb
								{
OFFSET 0 0.000000 0.000000
CHANNELS 3 Zrotation Xrotation Yrotation
									End Site
									{
OFFSET 0 -0.578920 0.578920
									}
								}
							}
						}
					}
				}
				JOINT RightCollar
				{
					OFFSET 0 0 0
					CHANNELS 3 Zrotation Yrotation Xrotation
					JOINT RightShoulder
					{
						OFFSET -2.80694 1.55459 -0.32496
CHANNELS 3 Zrotation Xrotation Yrotation
						JOINT RightElbow
						{
OFFSET 0 -4.719250 -0.000000
CHANNELS 3 Zrotation Xrotation Yrotation
							JOINT RightWrist
							{
OFFSET 0 -3.569900 0.000000
CHANNELS 3 Zrotation Xrotation Yrotation
								JOINT rhand
								{
									OFFSET 0 0 0
CHANNELS 3 Zrotation Xrotation Yrotation
									JOINT RFingers
									{
OFFSET 0 -0.507760 0.000000
CHANNELS 3 Zrotation Xrotation Yrotation
										End Site
										{
OFFSET 0 -0.409370 0.000000
										}
									}
								}
								JOINT RThumb
								{
OFFSET 0 0.000000 0.000000
CHANNELS 3 Zrotation Xrotation Yrotation
									End Site
									{
OFFSET 0 -0.415620 0.415620
									}
								}
							}
						}
					}
				}
			}
		}
	}
}
MOTION
Frames: 10
Frame Time: 0.008333333333333333
-1.277900 18.090700 21.677400 175.987000 1.427100 -156.795000 0.000000 0.000000 0.000000 -26.248600 -11.880100 -21.056900 0.103000 2.069900 5.698900 0.084800 -4.147200 -5.542800 5.841700 -14.273200 -44.343100 0.000000 0.000000 0.000000 12.701100 19.754600 -24.416000 -0.639400 -5.115700 14.238700 -1.191900 3.417500 -19.786900 -0.554400 4.769700 -13.253000 -9.885000 -2.047600 -17.408600 -0.422300 -0.407100 2.953000 5.033100 -0.902800 13.308700 -1.619400 -3.074100 -0.599600 3.657500 -2.209100 26.516000 1.496400 0.109900 8.369200 -0.000000 0.000000 0.000000 7.921400 -5.631700 -22.457900 29.140400 -40.145100 10.851100 23.225700 -37.494600 11.447200 0.000000 0.000000 0.000000 -7.125000 0.000000 0.000000 -2.740800 17.561900 -1.788100 -0.000000 0.000000 0.000000 -1.195000 13.415000 11.922600 -29.410200 -40.382500 -11.025500 -14.308400 30.672400 36.355000 0.000000 0.000000 0.000000 7.125000 0.000000 -0.000000 25.381500 65.503700 -12.946500
-1.294850 18.046891 21.685524 176.176536 0.983579 -154.845402 0.000000 0.000000 0.000000 -25.598311 -13.223593 -23.402324 0.127036 2.297508 6.328577 -0.007073 -4.832944 -3.098097 3.434351 -11.291671 -33.353551 0.000000 0.000000 0.000000 12.151412 19.680328 -26.999527 -0.669146 -5.230876 14.568289 -1.179899 3.511661 -19.668285 -0.599573 4.952937 -13.775109 -9.017292 -2.248424 -19.472898 -0.438371 -0.668404 2.508377 4.439090 -0.972492 14.027198 -1.491286 -3.062631 -0.570747 3.733785 -2.242569 26.368902 1.494558 0.103865 8.312798 0.000000 0.000000 0.000000 7.930245 -5.448867 -24.686529 28.146930 -39.249954 10.216910 23.663282 -32.593529 11.247800 0.000000 0.000000 0.000000 -7.125000 0.000000 0.000000 -2.425063 17.736115 -1.572513 0.000000 0.000000 0.000000 -1.353459 12.519017 9.933289 -33.731217 -43.884523 -13.926469 5.738606 -4.759932 52.365676 0.000000 0.000000 0.000000 7.125000 0.000000 0.000000 74.292351 69.167601 -51.878719
-1.284402 18.041099 21.666018 176.494361 0.752240 -154.628554 0.000000 0.000000 0.000000 -25.163064 -13.074815 -23.605687 0.124379 2.273413 6.261902 -0.072681 -5.457435 -0.704411 1.402282 -7.235592 -20.519049 0.000000 0.000000 0.000000 12.578506 19.763649 -26.863839 -0.639972 -5.117980 14.245287 -1.192538 4.021484 -19.702183 -0.462049 4.357271 -12.084479 -8.693884 -2.141390 -19.905782 -0.307644 -0.728459 2.476469 4.368957 -1.049496 14.237718 -1.378472 -3.117525 -0.439056 3.730393 -2.334201 26.236101 1.465688 0.066220 8.244214 0.000000 0.000000 0.000000 7.837950 -5.049386 -27.008672 27.240771 -38.405830 9.649085 24.071059 -27.226024 11.159606 0.000000 0.000000 0.000000 -7.125000 0.000000 0.000000 -2.134842 17.792893 -1.381301 0.000000 0.000000 0.000000 -1.394284 12.636878 10.590637 -33.533082 -43.735709 -13.789240 -1.723785 -1.228809 54.429416 0.000000 0.000000 0.000000 7.125000 0.000000 0.000000 76.348323 72.331057 -57.690348
-1.279002 18.037541 21.650156 176.910513 0.585258 -154.299402 0.000000 0.000000 0.000000 -24.578064 -13.062646 -23.943622 0.122352 2.254980 6.210927 -0.097900 -5.689897 1.867049 0.299205 -1.638632 -4.548798 0.000000 0.000000 0.000000 13.077857 19.845746 -27.042915 -0.631326 -5.084114 14.148482 -1.185656 4.200971 -19.619311 -0.422777 4.171197 -11.559118 -8.166245 -2.042213 -20.502631 -0.189933 -0.682145 2.443847 4.216403 -1.000628 14.533318 -1.323136 -3.157405 -0.272428 3.745973 -2.422095 25.968124 1.450947 0.017297 8.124045 0.000000 0.000000 0.000000 7.787063 -4.631446 -29.869643 26.287065 -37.487196 9.063215 24.531783 -20.532604 11.232408 0.000000 0.000000 0.000000 -7.125000 0.000000 0.000000 -1.815609 17.668818 -1.179021 0.000000 0.000000 0.000000 -1.278157 12.686874 11.399187 -33.422061 -43.651958 -13.712545 -15.278144 6.789036 55.315363 0.000000 0.000000 0.000000 7.125000 0.000000 0.000000 77.234807 77.509696 -64.411786
-1.274104 18.033686 21.635321 177.452149 0.397050 -153.843893 0.000000 0.000000 0.000000 -23.782370 -13.143853 -24.430458 0.122848 2.259633 6.223654 -0.074822 -5.732247 5.039814 0.820412 5.069883 14.271952 0.000000 0.000000 0.000000 13.703046 19.899403 -27.401681 -0.618734 -5.033984 14.005446 -1.147093 4.015713 -19.308807 -0.385166 3.965256 -10.981489 -7.496939 -1.932563 -21.191578 -0.009768 -0.669805 2.360650 4.044408 -0.956917 14.825268 -1.318050 -3.213332 -0.161942 3.692036 -2.513997 25.750653 1.421959 -0.043726 8.031708 0.000000 0.000000 0.000000 7.715055 -4.068037 -33.087980 25.276110 -36.481869 8.454736 25.074340 -12.820487 11.473866 0.000000 0.000000 0.000000 -7.125000 0.000000 0.000000 -1.449249 17.350823 -0.950995 0.000000 0.000000 0.000000 -1.219541 12.699542 11.839668 -33.356412 -43.602230 -13.667264 -23.301759 11.970055 56.227958 0.000000 0.000000 0.000000 7.125000 0.000000 0.000000 82.434925 80.502308 -72.810063
-1.265410 18.029935 21.621509 177.561406 0.337305 -153.666793 0.000000 0.000000 0.000000 -23.594647 -13.067617 -24.565751 0.122239 2.253910 6.207771 -0.032832 -5.131076 1.088275 2.600482 -3.583463 -10.871660 0.000000 0.000000 0.000000 13.875323 19.859107 -27.407324 -0.593658 -4.932709 13.716702 -1.116727 3.780024 -19.076365 -0.350714 3.799522 -10.513889 -7.346052 -1.934344 -21.502640 0.074938 -0.698946 2.306573 4.045350 -0.965631 14.945724 -1.292480 -3.192876 0.062560 3.625739 -2.488702 25.503454 1.394021 -0.047138 7.905669 0.000000 0.000000 0.000000 7.583455 -3.607358 -34.571177 24.528854 -35.717355 8.013692 26.650157 -8.521091 11.041706 0.000000 0.000000 0.000000 -7.125000 0.000000 0.000000 -0.317145 17.665714 -0.212934 0.000000 0.000000 0.000000 -1.253013 12.627750 11.367966 -33.102981 -43.408570 -13.492919 -17.348534 8.502027 57.269935 0.000000 0.000000 0.000000 7.125000 0.000000 0.000000 85.476509 78.246908 -73.405175
-1.261428 18.026225 21.615109 177.515733 0.351061 -153.518317 0.000000 0.000000 0.000000 -23.615976 -13.060036 -24.721452 0.123603 2.266099 6.241691 -0.024168 -4.799969 -2.434502 3.473990 -11.423845 -33.724976 0.000000 0.000000 0.000000 13.825038 19.787532 -27.490739 -0.576001 -4.860251 13.510380 -1.075351 3.376029 -18.762635 -0.359862 3.853206 -10.664229 -7.270421 -1.908650 -21.840462 0.043721 -0.652137 2.329696 3.980587 -0.945330 15.165042 -1.148170 -3.142779 0.386295 3.635768 -2.477405 24.987080 1.366206 -0.056230 7.670947 0.000000 0.000000 0.000000 7.486134 -3.569966 -34.740284 23.981273 -35.143682 7.696115 27.884786 -7.406231 10.589602 0.000000 0.000000 0.000000 -7.125000 0.000000 0.000000 0.577905 18.037172 0.370503 0.000000 0.000000 0.000000 -1.189292 12.365381 11.009973 -32.630344 -43.043420 -13.169278 -15.062636 7.205964 57.852817 0.000000 0.000000 0.000000 7.125000 0.000000 0.000000 87.174363 77.386572 -74.196438
-1.271076 18.020367 21.615562 177.607092 0.415718 -153.125439 0.000000 0.000000 0.000000 -23.368950 -13.552796 -25.078474 0.126908 2.296212 6.325082 -0.017712 -4.543229 -2.480938 3.593997 -11.599557 -34.329661 0.000000 0.000000 0.000000 13.817166 19.596622 -28.022224 -0.565112 -4.814816 13.381043 -1.022343 3.393403 -18.274661 -0.369669 3.905143 -10.809924 -6.850147 -1.754260 -22.372418 -0.019930 -0.512961 2.302413 3.713272 -0.852767 15.418267 -0.976933 -3.144575 0.644516 3.633127 -2.567137 24.333448 1.320621 -0.125043 7.405841 0.000000 0.000000 0.000000 7.346272 -3.747226 -34.642133 23.445717 -34.572073 7.389903 27.767914 -7.223044 10.695664 0.000000 0.000000 0.000000 -7.125000 0.000000 0.000000 0.488114 17.930859 0.314033 0.000000 0.000000 0.000000 -1.119381 12.090533 10.844150 -32.069144 -42.601673 -12.787790 -15.915155 7.821269 57.347061 0.000000 0.000000 0.000000 7.125000 0.000000 0.000000 85.102929 77.731254 -72.481815
-1.277612 18.019015 21.604549 177.601806 0.530418 -153.077386 0.000000 0.000000 0.000000 -23.340116 -13.871804 -24.888849 0.121150 2.243388 6.178836 0.001874 -3.670634 -2.657465 3.640352 -11.665738 -34.559531 0.000000 0.000000 0.000000 13.828913 19.371595 -27.954578 -0.540237 -4.709086 13.080720 -0.979517 3.380802 -17.875559 -0.402521 4.073287 -11.282978 -6.652111 -1.662934 -22.734169 -0.022103 -0.408106 2.414423 3.633874 -0.800774 15.752259 -0.908805 -3.096120 1.125949 3.503288 -2.603755 23.234294 1.250034 -0.218244 6.956338 0.000000 0.000000 0.000000 7.062206 -3.929803 -34.194895 23.024954 -34.116044 7.152349 26.724145 -7.505077 10.847085 0.000000 0.000000 0.000000 -7.125000 0.000000 0.000000 -0.254797 17.871798 -0.164361 0.000000 0.000000 0.000000 -1.159303 11.804822 10.633672 -31.764381 -42.358511 -12.581794 -14.900390 7.754008 58.568156 0.000000 0.000000 0.000000 7.125000 0.000000 0.000000 90.303809 77.244524 -77.230878
-1.261913 18.017025 21.598890 177.499846 0.322236 -152.934699 0.000000 0.000000 0.000000 -23.411742 -13.696391 -25.119110 0.120775 2.240287 6.170203 -0.011427 -4.269648 -2.521079 3.478272 -11.431754 -33.750167 0.000000 0.000000 0.000000 13.774683 19.387256 -27.807441 -0.512428 -4.588290 12.737937 -0.954624 2.915231 -17.715336 -0.417663 4.148122 -11.493687 -6.853085 -1.780994 -22.874485 0.107014 -0.519436 2.372245 3.859802 -0.877495 15.803296 -1.229871 -3.177571 1.612745 3.627237 -2.731672 22.863694 1.336873 -0.313028 6.760763 0.000000 0.000000 0.000000 6.697870 -3.905481 -33.256474 22.763962 -33.829529 7.006544 24.172114 -8.634639 11.608415 0.000000 0.000000 0.000000 -7.125000 0.000000 0.000000 -2.086724 17.295545 -1.372850 0.000000 0.000000 0.000000 -1.277479 11.643155 10.448422 -30.986251 -41.723594 -12.060809 -15.669240 7.897162 56.203520 0.000000 0.000000 0.000000 7.125000 0.000000 0.000000 79.759156 77.666747 -67.107852
